# xmcd
# 
# Track frame offsets:
#     150
#     14987
#     26595
#     44870
#     70000
#     80390
#     94035
#     116917
#     128795
#     145537
#     161405
#     172040
# 
# Disc length: 2465
# 
# Revision: 6
# Processed by: cddbd v1.5.2PL0 Copyright (c) Steve Scherf et al.
# Submitted via: BonkEnc v1.0.5
# 
DISCID=a5099f0c
DTITLE=Orchestre De Chambre Paillard - Vivaldi - The Four Seasons
DYEAR=1970
DGENRE=Classical
TTITLE0=Spring - Allegro
TTITLE1=Spring - Largo E Pianissimo
TTITLE2=Spring - Danza Pastorale (Allegro)
TTITLE3=Autumn - Allegro Non Molto
TTITLE4=Autumn - Adagio
TTITLE5=Autumn - Presto  - Tempo Impetuoso d'Estate
TTITLE6=Summer - Allegro
TTITLE7=Summer - Adagio
TTITLE8=Summer - Allegro
TTITLE9=Winter - Allegro Non Molto
TTITLE10=Winter - Largo
TTITLE11=Winter - Allegro
EXTD=YEAR: 1970
EXTT0=
EXTT1=
EXTT2=
EXTT3=
EXTT4=
EXTT5=
EXTT6=
EXTT7=
EXTT8=
EXTT9=
EXTT10=
EXTT11=
PLAYORDER=
